<?xml version="1.0" encoding="UTF-8"?>
<svg version="1.1" xmlns="http://www.w3.org/2000/svg" width="800" height="600">
<path d="M0 0 C264 0 528 0 800 0 C800 198 800 396 800 600 C536 600 272 600 0 600 C0 402 0 204 0 0 Z " fill="#FEFEFE" transform="translate(0,0)"/>
<path d="M0 0 C6.56528134 5.37159382 11.12198835 12.37111316 12.03125 20.8828125 C12.33864085 30.07892216 10.200477 37.26764404 4.42578125 44.4609375 C0.59971008 48.54564751 -3.86950269 51.60595916 -9.25 53.25 C-10.24 53.25 -11.23 53.25 -12.25 53.25 C-12.25 60.18 -12.25 67.11 -12.25 74.25 C-8.81464844 74.20359375 -5.37929688 74.1571875 -1.83984375 74.109375 C1.53619921 74.07806233 4.91222518 74.05384136 8.28833008 74.03027344 C10.61099648 74.01032119 12.93361373 73.98314951 15.25610352 73.94824219 C28.39272899 73.75592991 40.28956322 73.76201043 52.75 78.25 C53.87599609 78.62809814 55.00199219 79.00619629 56.16210938 79.39575195 C82.10841184 88.32997343 102.49141326 106.8757461 114.76855469 131.23144531 C119.32694999 140.60677178 122.62233678 149.80939399 123.75 160.25 C124.69875 160.311875 125.6475 160.37375 126.625 160.4375 C137.19213036 162.03213738 146.2890365 169.3243854 152.5703125 177.66796875 C161.81616352 192.28013028 164.5964307 210.00098399 160.87890625 226.90625 C158.94211297 234.09228827 156.16925947 240.05459609 151.0078125 245.55078125 C149.26995621 249.28015609 149.90733503 252.08578542 150.40429688 256.1081543 C153.85904349 287.50584796 147.3683009 318.9307994 133.75 347.25 C133.42918457 347.92063477 133.10836914 348.59126953 132.77783203 349.28222656 C113.99797001 387.87202938 79.01187665 417.62479163 38.81884766 432.01953125 C7.85977224 442.51919216 -24.34261393 444.99014997 -56.25 437.25 C-57.5843262 436.95692196 -58.91894365 436.66516546 -60.25390625 436.375 C-87.53374403 429.8949537 -112.72847273 415.08730613 -132.75537109 395.68896484 C-134.29486599 394.20680494 -135.85911673 392.75414703 -137.42578125 391.30078125 C-164.30131175 365.94391613 -183.74895027 326.50236744 -185.25 289.25 C-185.2461021 286.03006316 -185.17591789 282.81273909 -185.1015625 279.59375 C-185.0843515 278.7192923 -185.0671405 277.84483459 -185.04940796 276.94387817 C-184.90305536 269.53820205 -184.90305536 269.53820205 -184.77685547 265.99267578 C-184.38056565 254.35503396 -184.52050916 246.60015475 -192.25 237.25 C-196.82350757 228.93239333 -196.51821723 219.92420983 -196.625 210.6875 C-196.68107422 208.88829102 -196.68107422 208.88829102 -196.73828125 207.05273438 C-196.86287071 194.22694116 -192.75790462 182.93541188 -184.25 173.25 C-177.22806809 166.43212423 -168.87500609 161.37645483 -159.25 159.25 C-159.01925781 158.23421875 -158.78851563 157.2184375 -158.55078125 156.171875 C-151.95817557 127.97437838 -135.6066227 103.87153468 -110.9140625 88.4375 C-95.14792523 78.90716168 -78.75804995 73.87220221 -60.3359375 74.0546875 C-59.24028473 74.0575174 -58.14463196 74.06034729 -57.01577759 74.06326294 C-53.55206903 74.07436487 -50.08862903 74.09945061 -46.625 74.125 C-44.26172251 74.13504271 -41.89844093 74.14416629 -39.53515625 74.15234375 C-33.77333566 74.17427143 -28.0117132 74.20873153 -22.25 74.25 C-22.25 67.32 -22.25 60.39 -22.25 53.25 C-24.56 52.92 -26.87 52.59 -29.25 52.25 C-38.06246415 48.01846435 -42.3960366 41.41062445 -46.3828125 32.8046875 C-48.47772507 26.63318831 -48.12384504 19.52289589 -45.6875 13.5 C-41.42632261 5.17408247 -34.42778353 -2.1686373 -25.48046875 -5.20703125 C-15.90995746 -7.53680545 -8.37353625 -4.50882721 0 0 Z " fill="#195272" transform="translate(418.25,62.75)"/>
<path d="M0 0 C1.43061768 -0.00744736 1.43061768 -0.00744736 2.89013672 -0.01504517 C6.0367913 -0.02961477 9.18339539 -0.03646177 12.33007812 -0.04199219 C13.41035782 -0.04481956 14.49063751 -0.04764694 15.60365295 -0.05056 C21.32561486 -0.06553538 27.04755169 -0.07477398 32.76953125 -0.07910156 C38.64886264 -0.08456939 44.52796048 -0.10856655 50.40721893 -0.13707352 C54.95431156 -0.1558054 59.50134924 -0.16091119 64.04847717 -0.16243744 C66.21396657 -0.16544306 68.3794555 -0.17339991 70.54490662 -0.18662262 C82.21985226 -0.25279721 93.05750265 -0.08585501 104.36132812 3.16113281 C105.0781778 3.36372208 105.79502747 3.56631134 106.53359985 3.77503967 C119.30068196 7.68315034 130.30066792 13.43080784 140.36132812 22.16113281 C141.11027344 22.76570313 141.85921875 23.37027344 142.63085938 23.99316406 C160.99958515 39.27362771 170.82742755 61.79086569 173.36132812 85.16113281 C173.63170751 89.8678394 173.68858592 94.560608 173.69726562 99.27441406 C173.70392242 100.56824509 173.71057922 101.86207611 173.71743774 103.19511414 C173.72928749 105.91192976 173.73313134 108.62861942 173.73193359 111.34545898 C173.73177108 114.09247168 173.74567481 116.83881724 173.77294922 119.58569336 C173.98341763 141.12298829 172.53116777 158.91907939 162.36132812 178.16113281 C161.89984375 179.051875 161.43835938 179.94261719 160.96289062 180.86035156 C147.59594064 204.85132249 125.48154003 218.0864627 99.85742188 225.63964844 C92.78850676 227.11648751 85.66782928 227.3101394 78.47045898 227.30639648 C77.52614517 227.3097551 76.58183136 227.31311371 75.60890198 227.3165741 C72.51464492 227.32600541 69.42044237 227.3280229 66.32617188 227.32910156 C64.16101561 227.33231833 61.99585956 227.33568272 59.83070374 227.33918762 C55.30436702 227.34515841 50.77804935 227.34702951 46.25170898 227.34643555 C40.46272548 227.34633376 34.67386415 227.36001277 28.88490963 227.37720776 C24.41784609 227.38834215 19.95081203 227.39035435 15.48373604 227.38982582 C13.34958028 227.39100273 11.21542368 227.3954082 9.08128166 227.40315819 C6.09503532 227.4129921 3.10905364 227.41006713 0.12280273 227.40405273 C-1.18740341 227.41248199 -1.18740341 227.41248199 -2.52407837 227.42108154 C-7.89990892 227.39366911 -12.46775623 226.64109483 -17.63867188 225.16113281 C-19.02892578 224.87882812 -19.02892578 224.87882812 -20.44726562 224.59082031 C-42.89068184 219.85535954 -63.47829101 204.9595591 -76.05273438 185.85253906 C-86.46726047 168.17862656 -90.97484463 151.74241021 -90.90429688 131.19238281 C-90.90564911 129.78096449 -90.90759426 128.36954663 -90.91009521 126.95812988 C-90.91302026 124.02005518 -90.90883431 121.08210324 -90.89941406 118.14404297 C-90.88802107 114.41253125 -90.89459475 110.68130742 -90.90655899 106.94980621 C-90.91384907 104.04125877 -90.91145721 101.13277754 -90.90630341 98.22422791 C-90.90498657 96.84976669 -90.90654405 95.47529909 -90.91126251 94.10084534 C-90.94173748 82.7344292 -90.14699578 71.81378607 -85.95117188 61.16113281 C-85.69062012 60.48743652 -85.43006836 59.81374023 -85.16162109 59.11962891 C-75.45018645 34.83240736 -56.60468571 16.866705 -32.94726562 6.44238281 C-22.06350639 2.22765669 -11.61735552 0.01456697 0 0 Z " fill="#E0F3EF" transform="translate(359.638671875,146.8388671875)"/>
<path d="M0 0 C1.43061768 -0.00744736 1.43061768 -0.00744736 2.89013672 -0.01504517 C6.0367913 -0.02961477 9.18339539 -0.03646177 12.33007812 -0.04199219 C13.41035782 -0.04481956 14.49063751 -0.04764694 15.60365295 -0.05056 C21.32561486 -0.06553538 27.04755169 -0.07477398 32.76953125 -0.07910156 C38.64886264 -0.08456939 44.52796048 -0.10856655 50.40721893 -0.13707352 C54.95431156 -0.1558054 59.50134924 -0.16091119 64.04847717 -0.16243744 C66.21396657 -0.16544306 68.3794555 -0.17339991 70.54490662 -0.18662262 C82.21985226 -0.25279721 93.05750265 -0.08585501 104.36132812 3.16113281 C105.0781778 3.36372208 105.79502747 3.56631134 106.53359985 3.77503967 C119.30068196 7.68315034 130.30066792 13.43080784 140.36132812 22.16113281 C141.11027344 22.76570313 141.85921875 23.37027344 142.63085938 23.99316406 C160.99958515 39.27362771 170.82742755 61.79086569 173.36132812 85.16113281 C173.63170751 89.8678394 173.68858592 94.560608 173.69726562 99.27441406 C173.70392242 100.56824509 173.71057922 101.86207611 173.71743774 103.19511414 C173.72928749 105.91192976 173.73313134 108.62861942 173.73193359 111.34545898 C173.73177108 114.09247168 173.74567481 116.83881724 173.77294922 119.58569336 C173.98341763 141.12298829 172.53116777 158.91907939 162.36132812 178.16113281 C161.89984375 179.051875 161.43835938 179.94261719 160.96289062 180.86035156 C147.59594064 204.85132249 125.48154003 218.0864627 99.85742188 225.63964844 C92.78850676 227.11648751 85.66782928 227.3101394 78.47045898 227.30639648 C77.52614517 227.3097551 76.58183136 227.31311371 75.60890198 227.3165741 C72.51464492 227.32600541 69.42044237 227.3280229 66.32617188 227.32910156 C64.16101561 227.33231833 61.99585956 227.33568272 59.83070374 227.33918762 C55.30436702 227.34515841 50.77804935 227.34702951 46.25170898 227.34643555 C40.46272548 227.34633376 34.67386415 227.36001277 28.88490963 227.37720776 C24.41784609 227.38834215 19.95081203 227.39035435 15.48373604 227.38982582 C13.34958028 227.39100273 11.21542368 227.3954082 9.08128166 227.40315819 C6.09503532 227.4129921 3.10905364 227.41006713 0.12280273 227.40405273 C-1.18740341 227.41248199 -1.18740341 227.41248199 -2.52407837 227.42108154 C-7.89990892 227.39366911 -12.46775623 226.64109483 -17.63867188 225.16113281 C-19.02892578 224.87882812 -19.02892578 224.87882812 -20.44726562 224.59082031 C-42.89068184 219.85535954 -63.47829101 204.9595591 -76.05273438 185.85253906 C-86.46726047 168.17862656 -90.97484463 151.74241021 -90.90429688 131.19238281 C-90.90564911 129.78096449 -90.90759426 128.36954663 -90.91009521 126.95812988 C-90.91302026 124.02005518 -90.90883431 121.08210324 -90.89941406 118.14404297 C-90.88802107 114.41253125 -90.89459475 110.68130742 -90.90655899 106.94980621 C-90.91384907 104.04125877 -90.91145721 101.13277754 -90.90630341 98.22422791 C-90.90498657 96.84976669 -90.90654405 95.47529909 -90.91126251 94.10084534 C-90.94173748 82.7344292 -90.14699578 71.81378607 -85.95117188 61.16113281 C-85.69062012 60.48743652 -85.43006836 59.81374023 -85.16162109 59.11962891 C-75.45018645 34.83240736 -56.60468571 16.866705 -32.94726562 6.44238281 C-22.06350639 2.22765669 -11.61735552 0.01456697 0 0 Z M-54.68945312 66.54785156 C-60.72855149 74.64435819 -65.36397742 83.28335005 -67.63867188 93.16113281 C-67.97278076 94.33514648 -68.30688965 95.50916016 -68.65112305 96.71875 C-69.81811969 101.40044178 -69.97917365 105.90791136 -70.00976562 110.71582031 C-70.0187941 111.61624054 -70.02782257 112.51666077 -70.03712463 113.44436646 C-70.05156579 115.34536454 -70.06049852 117.24641163 -70.06420898 119.14746094 C-70.07599767 121.99406813 -70.1251513 124.83842624 -70.17578125 127.68457031 C-70.36117479 148.61695831 -65.56192514 167.544723 -50.82104492 183.05395508 C-38.53322245 195.50051875 -22.60767846 204.41382739 -4.78115845 204.55661011 C-3.86394012 204.54896637 -2.9467218 204.54132263 -2.00170898 204.53344727 C-0.50183693 204.53892326 -0.50183693 204.53892326 1.02833557 204.54450989 C4.297064 204.55254239 7.56528523 204.53906707 10.83398438 204.52441406 C13.12601216 204.52389462 15.4180404 204.52441557 17.71006775 204.52592468 C22.49859321 204.52583529 27.28694918 204.51547202 32.07543945 204.49731445 C38.19376499 204.47461591 44.31184355 204.4740892 50.43019962 204.4808321 C55.15813874 204.48418335 59.8860222 204.47752041 64.61395073 204.46770287 C66.86925401 204.4638715 69.12456349 204.46269403 71.37986946 204.46428871 C74.53795162 204.46466217 77.69572439 204.45196123 80.85375977 204.43579102 C81.77300232 204.43826843 82.69224487 204.44074585 83.63934326 204.44329834 C101.48936673 204.29842399 118.27786971 197.33400746 131.39648438 185.20800781 C137.75723643 178.58169752 142.54543526 171.49700533 146.29882812 163.16113281 C146.72240601 162.23796265 146.72240601 162.23796265 147.15454102 161.29614258 C152.1254285 149.53389242 151.73402732 136.76121703 151.73193359 124.22607422 C151.73630906 121.2988879 151.77273897 118.37321032 151.81054688 115.44628906 C151.93257235 95.18490448 147.08333626 78.60511844 133.36132812 63.16113281 C132.52988281 62.2059375 132.52988281 62.2059375 131.68164062 61.23144531 C121.38271276 50.14408278 105.06377993 42.1639743 89.94234848 40.97015762 C87.33399428 40.8895116 84.73215605 40.86799826 82.12255859 40.87060547 C81.14072098 40.86388824 80.15888336 40.85717102 79.14729309 40.85025024 C75.92431473 40.83136478 72.70154577 40.82735046 69.47851562 40.82519531 C67.21802691 40.81875959 64.95753902 40.81203066 62.697052 40.80502319 C57.96468172 40.7930731 53.2323843 40.78933991 48.5 40.79052734 C42.47166696 40.79073011 36.44380756 40.76346102 30.41558647 40.72898293 C25.74663194 40.70661006 21.07778939 40.70269302 16.40878677 40.7037468 C14.18829852 40.70140518 11.96780649 40.69266403 9.74737167 40.67708206 C-15.84711986 40.51431953 -37.3435689 46.1761133 -54.68945312 66.54785156 Z " fill="#FCFDFD" transform="translate(359.638671875,146.8388671875)"/>
<path d="M0 0 C0.79921875 0.33773438 1.5984375 0.67546875 2.421875 1.0234375 C8.19612857 3.36838085 12.99786159 5.11717986 19.25 5.375 C23.52219137 5.95731704 24.66513085 6.57048188 27.36328125 10.03125 C28.91656421 12.62187243 30.3084973 15.28856179 31.71484375 17.9609375 C35.07515449 24.2301518 40.0420194 28.9809981 45 34 C45.56976563 34.64195312 46.13953125 35.28390625 46.7265625 35.9453125 C61.45813145 52.18781159 85.92891672 62.06663939 107.49637032 63.12217522 C114.71208622 63.33522424 121.93015671 63.33125483 129.1484375 63.3359375 C131.4928902 63.34237739 133.83734213 63.34910661 136.18179321 63.35610962 C141.07857119 63.36803311 145.97527886 63.37179539 150.87207031 63.37060547 C157.11102942 63.37040224 163.3495333 63.39773191 169.58838463 63.43214989 C174.42546617 63.45450745 179.26243952 63.45844034 184.09956741 63.45738602 C186.39820554 63.45972759 188.69684731 63.46846845 190.99543381 63.48405075 C203.65036635 63.56183393 214.9787309 63.22532923 227 59 C227.76235458 58.75029449 228.52470917 58.50058899 229.31016541 58.24331665 C254.27051165 49.70132714 272.52246321 33.45324076 286 11 C286.40412109 9.84951172 286.40412109 9.84951172 286.81640625 8.67578125 C288 7 288 7 291.16015625 6.09375 C292.44792969 5.8978125 293.73570312 5.701875 295.0625 5.5 C300.56030978 4.58161661 305.37859536 3.30460007 310.36328125 0.76953125 C312 0 312 0 314 0 C314.41765717 33.1073627 314.41765717 33.1073627 312 45 C311.76667969 46.27230469 311.53335937 47.54460937 311.29296875 48.85546875 C305.12360225 79.94343702 288.79646597 106.48654502 267 129 C265.9171875 130.15242188 265.9171875 130.15242188 264.8125 131.328125 C263 133 263 133 261 133 C261 133.66 261 134.32 261 135 C260.34 135 259.68 135 259 135 C258.86464844 134.15179688 258.72929687 133.30359375 258.58984375 132.4296875 C256.08081675 118.75774396 250.4982924 107.25098726 241 97 C240.35804688 96.30390625 239.71609375 95.6078125 239.0546875 94.890625 C232.46250672 88.42377085 224.32419445 84.7501011 216 81 C215.18015625 80.61585938 214.3603125 80.23171875 213.515625 79.8359375 C207.16249255 77.72480342 200.3561986 77.85108974 193.72924805 77.85473633 C192.83866699 77.85137772 191.94808594 77.8480191 191.03051758 77.84455872 C188.10757016 77.8351163 185.18468044 77.83310901 182.26171875 77.83203125 C180.21442136 77.82881407 178.16712419 77.82544965 176.11982727 77.82194519 C171.83549466 77.81597073 167.55118218 77.81410356 163.2668457 77.81469727 C157.79985373 77.8147988 152.33299187 77.80114758 146.86603069 77.78392506 C142.63903724 77.7727607 138.41207481 77.77077942 134.18506813 77.77130699 C132.17061731 77.77013352 130.15616552 77.76574764 128.14172935 77.75797462 C108.96959832 77.5429281 108.96959832 77.5429281 91 83.5625 C90.31993896 83.91473633 89.63987793 84.26697266 88.93920898 84.62988281 C73.5374206 92.88441229 62.99404623 105.59321961 57 122 C55.80422128 126.30299162 54.81900769 130.61040616 54 135 C41.49855214 124.77154266 31.76645406 113.53321345 23 100 C22.41992188 99.10692139 22.41992188 99.10692139 21.828125 98.19580078 C15.39714874 88.10371168 11.12141134 77.18564647 7 66 C6.5875 64.90300781 6.175 63.80601562 5.75 62.67578125 C-0.82076298 43.45116614 -2.53560741 22.16835005 -1 2 C-0.67 1.34 -0.34 0.68 0 0 Z " fill="#CDDADC" transform="translate(244,320)"/>
<path d="M0 0 C0.85022232 -0.00992981 1.70044464 -0.01985962 2.57643127 -0.03009033 C5.36291875 -0.05906812 8.1491782 -0.07289624 10.93579102 -0.08398438 C12.3791064 -0.09246651 12.3791064 -0.09246651 13.85157967 -0.10112 C18.94924113 -0.13100549 24.04679095 -0.14952345 29.14453125 -0.15820312 C34.35898739 -0.16912536 39.57238664 -0.21710656 44.78651333 -0.27414703 C48.84052823 -0.31176358 52.89429845 -0.32183024 56.94847298 -0.32487488 C58.86787724 -0.33085296 60.78728123 -0.34664984 62.70651054 -0.37324524 C82.07919681 -0.62242554 97.90628506 3.10570084 112.42016602 16.56445312 C121.46126876 25.8024308 127.60280702 38.28789063 129.00219727 51.19726562 C128.91775643 55.42986232 128.51064655 56.82776769 125.43969727 59.81445312 C121.8275798 62.35279981 117.93268314 64.33043383 114.00219727 66.32226562 C112.70257881 67.02664393 111.4043813 67.73365071 110.10766602 68.44335938 C86.84987117 80.88635244 61.59014773 86.76846904 35.31469727 86.63476562 C34.51584106 86.6319458 33.71698486 86.62912598 32.8939209 86.6262207 C-0.75990356 86.44757854 -28.96499996 75.5137653 -56.99780273 57.32226562 C-56.74849238 40.73179501 -51.68586199 26.5161861 -39.56030273 14.63476562 C-35.33028426 11.03860313 -30.85836543 8.39198198 -25.93530273 5.88476562 C-24.96282593 5.38940308 -24.96282593 5.38940308 -23.97070312 4.8840332 C-16.23539465 1.17508431 -8.51553326 0.02437904 0 0 Z " fill="#FDFEFE" transform="translate(364.997802734375,406.677734375)"/>
<path d="M0 0 C1.28438965 -0.00856522 1.28438965 -0.00856522 2.59472656 -0.01730347 C3.52619003 -0.01842133 4.4576535 -0.01953918 5.41734314 -0.02069092 C6.40487579 -0.02565582 7.39240845 -0.03062073 8.40986633 -0.03573608 C11.6792114 -0.05034758 14.94850788 -0.05715949 18.21788025 -0.06268311 C20.49509685 -0.06843718 22.77231344 -0.07419488 25.04953003 -0.07995605 C29.82854945 -0.0904644 34.60755207 -0.09630757 39.38658142 -0.09979248 C45.49046263 -0.10526445 51.59411933 -0.12926557 57.69793034 -0.15776443 C62.40532056 -0.17645481 67.11265752 -0.18159991 71.82008171 -0.18312836 C74.06899169 -0.18614302 76.317901 -0.19413117 78.56677437 -0.20731354 C81.72546696 -0.22450119 84.88362188 -0.22246232 88.04234314 -0.21600342 C88.95963699 -0.2252182 89.87693085 -0.23443298 90.82202148 -0.243927 C108.05717603 -0.13435466 125.38290713 8.00674083 137.807724 19.70294189 C144.9624125 27.16572703 151.20134896 36.36743938 154.682724 46.14044189 C155.09868835 47.29709351 155.09868835 47.29709351 155.52305603 48.47711182 C158.38410942 57.90002068 158.10242154 67.43589622 158.01890564 77.18536377 C157.99527394 80.13420981 157.9983678 83.08214972 158.00498962 86.03106689 C157.988067 98.61121031 157.86777794 110.70781551 152.495224 122.32794189 C152.18987732 123.00647217 151.88453064 123.68500244 151.56993103 124.38409424 C148.97584199 129.93754344 145.74604725 134.55057554 141.682724 139.14044189 C140.960849 140.13044189 140.238974 141.12044189 139.495224 142.14044189 C129.47264909 153.93750547 112.96212594 161.57657142 97.682724 163.14044189 C94.3202905 163.29606532 90.96075521 163.31776535 87.59507751 163.33331299 C86.11053825 163.34557922 86.11053825 163.34557922 84.5960083 163.35809326 C81.33455487 163.38281512 78.07314471 163.39943295 74.81163025 163.41387939 C73.69063368 163.41920307 72.56963711 163.42452675 71.41467094 163.43001175 C65.47644105 163.45669111 59.53823176 163.47607922 53.59996033 163.49053955 C48.71272441 163.50384853 43.82590899 163.53165349 38.93882751 163.5725708 C33.01086436 163.62218698 27.08328081 163.64669608 21.15511894 163.65376663 C18.91031175 163.66043172 16.66551145 163.67552789 14.42082405 163.69965744 C-7.63716106 163.92317351 -25.52762917 160.15283632 -42.07899475 144.36700439 C-42.81762756 143.63223877 -43.55626038 142.89747314 -44.317276 142.14044189 C-44.94247131 141.55005127 -45.56766663 140.95966064 -46.21180725 140.35137939 C-50.21116116 136.25271873 -52.89036788 131.62521888 -55.504776 126.57794189 C-55.8259137 125.97200195 -56.14705139 125.36606201 -56.47792053 124.74176025 C-62.94433899 111.61676878 -63.94435002 98.72612264 -63.78382874 84.35137939 C-63.75474326 81.51224584 -63.76329255 78.67497518 -63.77626038 75.83575439 C-63.76295796 62.80073772 -62.84092316 50.68357172 -56.629776 38.95294189 C-56.28164856 38.28005127 -55.93352112 37.60716064 -55.57484436 36.91387939 C-46.70951658 20.2956261 -32.14858026 8.2915894 -14.192276 2.70294189 C-12.2399334 2.16008354 -10.28219044 1.63586904 -8.317276 1.14044189 C-7.6897622 0.96407825 -7.0622484 0.78771461 -6.41571903 0.60600662 C-4.21180916 0.11704281 -2.25581139 0.00904858 0 0 Z M-38.317276 30.14044189 C-50.93149069 45.33651339 -52.70446821 61.06489834 -52.74281311 80.09063721 C-52.75469362 82.87116058 -52.8039864 85.64944794 -52.85438538 88.42950439 C-53.02046241 106.72377151 -48.54461816 122.61515288 -35.754776 136.39044189 C-19.66623359 151.52973597 -1.49349687 153.76128005 19.6280365 153.60137939 C21.73162218 153.59898886 23.83521002 153.59809093 25.938797 153.59860229 C30.32444334 153.59549254 34.70975857 153.57906695 39.09532166 153.55206299 C44.68763139 153.51804428 50.27957954 153.51043689 55.87198067 153.51195335 C60.20797612 153.51140694 64.54389419 153.500397 68.87986374 153.48595047 C70.94092602 153.47963427 73.00199697 153.47565586 75.06306839 153.47416306 C95.06774079 153.71755288 95.06774079 153.71755288 113.807724 147.51544189 C114.48585144 147.15990234 115.16397888 146.80436279 115.86265564 146.43804932 C130.77945671 138.39089779 140.52762504 126.3651953 145.682724 110.14044189 C147.47475908 101.7279684 146.98470028 92.93538368 147.03282166 84.37628174 C147.04931385 82.2332671 147.07651371 80.09030593 147.11485291 77.9475708 C147.46836585 58.03710692 144.64434293 42.43953123 130.432724 27.39044189 C121.15572987 18.60088305 108.47948528 11.06849908 95.34094238 10.99327087 C94.47915878 10.98611557 93.61737518 10.97896027 92.72947693 10.97158813 C91.79180481 10.96889923 90.85413269 10.96621033 89.88804626 10.96343994 C88.89397263 10.95686874 87.89989899 10.95029755 86.8757019 10.94352722 C83.58351054 10.92380838 80.29136489 10.91213154 76.99913025 10.90216064 C75.87163801 10.89808512 74.74414577 10.89400959 73.58248711 10.88981056 C67.6088212 10.86895074 61.63517821 10.8546515 55.66148376 10.84527588 C49.51513523 10.8342426 43.36915183 10.79987775 37.22293186 10.76010418 C32.47771572 10.73384857 27.73258516 10.72557585 22.98730278 10.7219944 C20.72328681 10.71714754 18.45927416 10.70558839 16.19532967 10.68695641 C-5.39125747 10.52041715 -22.78851311 13.7356975 -38.317276 30.14044189 Z " fill="#1A5272" transform="translate(353.31727600097656,187.85955810546875)"/>
<path d="M0 0 C1.44654182 0.46015581 2.89126862 0.92601996 4.33520508 1.39428711 C5.13992752 1.65310165 5.94464996 1.9119162 6.77375793 2.17857361 C14.98886786 5.20973909 20.3727551 13.41251723 24 21 C28.52145047 31.25483611 27.6456039 47.39779236 24.375 58 C20.01331133 68.43744446 12.50859479 75.96173702 2.08984375 80.25390625 C-0.25050195 81.08943154 -2.53346081 81.68173688 -5 82 C-4.5267671 78.96491977 -3.99744207 75.98949787 -3.27026367 73.00390625 C-0.10522723 59.21276139 -0.43916383 45.16474679 -0.33044434 31.08764648 C-0.30024224 27.57393078 -0.25385274 24.0604286 -0.20898438 20.546875 C-0.12383022 13.69804002 -0.05610333 6.84913316 0 0 Z " fill="#F8FAFB" transform="translate(543,234)"/>
<path d="M0 0 C0.00879936 1.03331703 0.00879936 1.03331703 0.01777649 2.08750916 C0.0762925 8.66053737 0.14868973 15.23326016 0.23571491 21.80597591 C0.27996532 25.18308145 0.31778121 28.55996134 0.34643555 31.93725586 C0.49715865 49.2383438 1.08983541 65.33257867 6 82 C-2.81609563 81.60817353 -10.36799329 77.13745792 -16.375 70.8125 C-26.62821667 58.39073853 -27.11802356 44.39968553 -26 29 C-23.45329346 16.55676546 -15.35894267 7.84817131 -5 1 C-2 0 -2 0 0 0 Z " fill="#F9FBFB" transform="translate(258,234)"/>
<path d="M0 0 C5.3901413 2.36208895 9.41204458 5.9512216 11.7734375 11.38671875 C12.84030876 17.5346603 12.81695599 23.41015245 9.7109375 28.94921875 C6.97129423 32.65947849 3.9099827 34.43551818 -0.2265625 36.38671875 C-1.2165625 36.88171875 -1.2165625 36.88171875 -2.2265625 37.38671875 C-9.37031436 37.87104091 -14.37173609 36.85225065 -19.9765625 32.01171875 C-24.78695849 26.3995901 -25.78526508 22.57515653 -25.5703125 15.2578125 C-24.80439621 8.86067076 -20.49622358 5.48222284 -15.8125 1.5859375 C-11.28793101 -1.83534989 -5.3029001 -1.46062336 0 0 Z " fill="#D0EBEA" transform="translate(407.2265625,68.61328125)"/>
<path d="M0 0 C4.52848451 3.29344328 8.11844933 6.89487587 9.265625 12.53515625 C9.50274463 18.14981041 8.55296472 21.68312113 4.75 26 C-0.60848738 30.72057221 -4.04279059 31.5230301 -11.125 31.48046875 C-16.25291383 30.692052 -19.08244706 27.95529516 -22.25 24 C-24.60984362 20.0669273 -24.71100191 16.53318547 -24.25 12 C-22.58959085 6.78015087 -19.96161917 2.80567586 -15.30859375 -0.15625 C-10.22582354 -2.23951065 -5.12764749 -1.57773769 0 0 Z " fill="#195272" transform="translate(458.25,243)"/>
<path d="M0 0 C3.77702297 2.63513231 6.60374735 5.7074947 8.6875 9.875 C9.49918623 16.28865187 8.63120503 21.65989156 4.6875 26.875 C-0.3475006 31.07083383 -4.93525591 31.61003552 -11.4296875 31.3984375 C-15.90294344 30.5862203 -18.58304762 28.43799772 -21.3125 24.875 C-24.3817004 19.97468344 -24.02768099 14.45049258 -23.3125 8.875 C-21.68378869 5.02531871 -19.21186731 2.67158247 -16.125 -0.0625 C-10.7384809 -2.09740722 -5.40937701 -1.83714691 0 0 Z " fill="#195171" transform="translate(358.3125,243.125)"/>
<path d="M0 0 C3.8310361 0.73673771 4.05743154 1.30267606 6.1875 4.375 C8.96535526 8.37171012 11.42617498 11.31311515 16.25 12.625 C23.88852356 13.52013948 31.30391711 13.99081217 37.6875 9.203125 C39.35255417 7.52142029 40.58615373 5.79410113 41.875 3.8125 C44.25 0.625 44.25 0.625 47.4375 0.0625 C50.25 0.625 50.25 0.625 52.25 2.625 C52.75760935 6.3474686 52.43230816 8.27496832 50.6875 11.625 C45.35745634 18.18505374 39.59246334 22.61872825 31.25 24.625 C20.61428744 25.70065729 12.09748396 24.66690382 3.4375 18.3125 C-1.019073 14.60388331 -4.4352838 11.35254038 -5.125 5.375 C-4.60902953 1.59121659 -3.69460517 0.83968299 0 0 Z " fill="#1A5272" transform="translate(376.75,287.375)"/>
<path d="M0 0 C0.66 0.33 1.32 0.66 2 1 C-0.31 3.64 -2.62 6.28 -5 9 C-5.99 8.67 -6.98 8.34 -8 8 C-5.36 5.36 -2.72 2.72 0 0 Z " fill="#235775" transform="translate(314,204)"/>
<path d="M0 0 C0.66 0.66 1.32 1.32 2 2 C1.0479279 3.00596297 0.08812654 4.00461563 -0.875 5 C-1.40867187 5.556875 -1.94234375 6.11375 -2.4921875 6.6875 C-4 8 -4 8 -6 8 C-4.55746343 4.63408134 -2.66735273 2.48952921 0 0 Z " fill="#D9F1EE" transform="translate(390,71)"/>
</svg>
